<svg xmlns="http://www.w3.org/2000/svg" width="620" height="650" viewBox="-10 -10 620 650">
<rect x="0" y="0" width="600" height="600" fill="none" stroke="black" stroke-width="1.5"/>
<polygon points="0.000,50.868 50.801,50.868 50.801,0.068 0.000,0.068" fill="#9dc3e6" stroke="#333" stroke-width="0.8"/>
<polygon points="50.801,50.801 101.601,50.801 101.601,0.000 50.801,0.000" fill="#f4b183" stroke="#333" stroke-width="0.8"/>
<polygon points="101.601,50.801 152.402,50.801 152.402,0.000 101.601,0.000" fill="#f4b183" stroke="#333" stroke-width="0.8"/>
<polygon points="152.402,50.862 203.202,50.862 203.202,0.061 152.402,0.061" fill="#f4b183" stroke="#333" stroke-width="0.8"/>
<polygon points="203.202,50.889 254.003,50.889 254.003,0.089 203.202,0.089" fill="#f4b183" stroke="#333" stroke-width="0.8"/>
<polygon points="254.003,50.919 304.804,50.919 304.804,0.118 254.003,0.118" fill="#f4b183" stroke="#333" stroke-width="0.8"/>
<polygon points="304.804,50.801 355.604,50.801 355.604,0.000 304.804,0.000" fill="#f4b183" stroke="#333" stroke-width="0.8"/>
<polygon points="394.513,70.291 437.085,42.572 409.366,0.000 366.794,27.719" fill="#f4b183" stroke="#333" stroke-width="0.8"/>
<polygon points="446.966,50.931 497.767,50.931 497.767,0.131 446.966,0.131" fill="#f4b183" stroke="#333" stroke-width="0.8"/>
<polygon points="0.000,101.805 50.801,101.805 50.801,51.005 0.000,51.005" fill="#f4b183" stroke="#333" stroke-width="0.8"/>
<polygon points="50.945,101.601 101.746,101.601 101.746,50.801 50.945,50.801" fill="#f4b183" stroke="#333" stroke-width="0.8"/>
<polygon points="101.838,101.789 152.639,101.808 152.658,51.008 101.858,50.988" fill="#f4b183" stroke="#333" stroke-width="0.8"/>
<polygon points="152.738,101.834 203.538,101.852 203.556,51.052 152.756,51.034" fill="#f4b183" stroke="#333" stroke-width="0.8"/>
<polygon points="203.656,101.956 254.457,101.983 254.484,51.182 203.683,51.155" fill="#f4b183" stroke="#333" stroke-width="0.8"/>
<polygon points="254.671,101.965 305.472,101.970 305.476,51.169 254.675,51.165" fill="#f4b183" stroke="#333" stroke-width="0.8"/>
<polygon points="360.017,109.643 401.697,80.600 372.654,38.920 330.974,67.963" fill="#f4b183" stroke="#333" stroke-width="0.8"/>
<polygon points="422.563,112.647 465.135,84.928 437.416,42.356 394.844,70.075" fill="#f4b183" stroke="#333" stroke-width="0.8"/>
<polygon points="0.000,152.725 50.801,152.725 50.801,101.924 0.000,101.924" fill="#f4b183" stroke="#333" stroke-width="0.8"/>
<polygon points="50.801,152.402 101.601,152.402 101.601,101.601 50.801,101.601" fill="#f4b183" stroke="#333" stroke-width="0.8"/>
<polygon points="101.601,152.768 152.402,152.768 152.402,101.968 101.601,101.968" fill="#f4b183" stroke="#333" stroke-width="0.8"/>
<polygon points="152.402,152.776 203.202,152.776 203.202,101.976 152.402,101.976" fill="#f4b183" stroke="#333" stroke-width="0.8"/>
<polygon points="225.662,192.854 271.228,170.394 248.769,124.828 203.202,147.287" fill="#f4b183" stroke="#333" stroke-width="0.8"/>
<polygon points="271.123,170.181 316.690,147.722 294.230,102.156 248.664,124.615" fill="#f4b183" stroke="#333" stroke-width="0.8"/>
<polygon points="324.991,151.238 367.645,123.645 340.052,80.991 297.398,108.584" fill="#f4b183" stroke="#333" stroke-width="0.8"/>
<polygon points="0.000,203.656 50.801,203.656 50.801,152.855 0.000,152.855" fill="#f4b183" stroke="#333" stroke-width="0.8"/>
<polygon points="50.801,203.202 101.601,203.202 101.601,152.402 50.801,152.402" fill="#f4b183" stroke="#333" stroke-width="0.8"/>
<polygon points="101.776,203.773 152.577,203.778 152.582,152.978 101.781,152.972" fill="#f4b183" stroke="#333" stroke-width="0.8"/>
<polygon points="152.727,203.706 203.528,203.683 203.505,152.882 152.704,152.905" fill="#f4b183" stroke="#333" stroke-width="0.8"/>
<polygon points="252.716,236.155 298.283,213.695 275.823,168.129 230.257,190.589" fill="#f4b183" stroke="#333" stroke-width="0.8"/>
<polygon points="298.283,213.695 343.849,191.236 321.389,145.670 275.823,168.129" fill="#f4b183" stroke="#333" stroke-width="0.8"/>
<polygon points="0.000,254.622 50.801,254.622 50.801,203.821 0.000,203.821" fill="#f4b183" stroke="#333" stroke-width="0.8"/>
<polygon points="50.801,254.003 101.601,254.003 101.601,203.202 50.801,203.202" fill="#f4b183" stroke="#333" stroke-width="0.8"/>
<polygon points="116.018,303.534 161.584,281.074 139.125,235.508 93.558,257.967" fill="#f4b183" stroke="#333" stroke-width="0.8"/>
<polygon points="157.282,272.346 202.848,249.886 180.389,204.320 134.822,226.780" fill="#f4b183" stroke="#333" stroke-width="0.8"/>
<polygon points="207.150,258.614 252.716,236.155 230.257,190.589 184.691,213.048" fill="#f4b183" stroke="#333" stroke-width="0.8"/>
<polygon points="22.460,343.530 68.026,321.071 45.566,275.505 0.000,297.964" fill="#f4b183" stroke="#333" stroke-width="0.8"/>
<polygon points="68.678,322.395 114.245,299.936 91.785,254.370 46.219,276.829" fill="#f4b183" stroke="#333" stroke-width="0.8"/>
<polygon points="162.690,337.166 208.256,314.706 185.796,269.140 140.230,291.599" fill="#f4b183" stroke="#333" stroke-width="0.8"/>
<polygon points="208.372,314.648 253.939,292.189 231.479,246.623 185.913,269.082" fill="#f4b183" stroke="#333" stroke-width="0.8"/>
<polygon points="6.459,396.798 56.847,390.339 50.388,339.950 0.000,346.409" fill="#f4b183" stroke="#333" stroke-width="0.8"/>
<polygon points="71.098,381.839 116.690,359.431 94.282,313.840 48.690,336.247" fill="#f4b183" stroke="#333" stroke-width="0.8"/>
<polygon points="117.005,359.684 162.571,337.224 140.112,291.658 94.545,314.117" fill="#f4b183" stroke="#333" stroke-width="0.8"/>
<polygon points="0.000,447.598 50.801,447.598 50.801,396.798 0.000,396.798" fill="#f4b183" stroke="#333" stroke-width="0.8"/>
<polygon points="73.104,439.189 118.062,415.535 94.408,370.577 49.450,394.231" fill="#f4b183" stroke="#333" stroke-width="0.8"/>
<polygon points="0.000,498.399 50.801,498.399 50.801,447.598 0.000,447.598" fill="#f4b183" stroke="#333" stroke-width="0.8"/>
<polygon points="549.199,600.000 600.000,600.000 600.000,549.199 549.199,549.199" fill="#f4b183" stroke="#333" stroke-width="0.8"/>
<polygon points="498.399,600.000 549.199,600.000 549.199,549.199 498.399,549.199" fill="#f4b183" stroke="#333" stroke-width="0.8"/>
<polygon points="447.598,600.000 498.399,600.000 498.399,549.199 447.598,549.199" fill="#f4b183" stroke="#333" stroke-width="0.8"/>
<polygon points="396.798,600.000 447.598,600.000 447.598,549.199 396.798,549.199" fill="#f4b183" stroke="#333" stroke-width="0.8"/>
<polygon points="345.997,600.000 396.798,600.000 396.798,549.199 345.997,549.199" fill="#f4b183" stroke="#333" stroke-width="0.8"/>
<polygon points="295.196,600.000 345.997,600.000 345.997,549.199 295.196,549.199" fill="#f4b183" stroke="#333" stroke-width="0.8"/>
<polygon points="244.396,599.869 295.196,599.869 295.196,549.069 244.396,549.069" fill="#f4b183" stroke="#333" stroke-width="0.8"/>
<polygon points="193.595,600.000 244.396,600.000 244.396,549.199 193.595,549.199" fill="#f4b183" stroke="#333" stroke-width="0.8"/>
<polygon points="101.601,600.000 152.402,600.000 152.402,549.199 101.601,549.199" fill="#f4b183" stroke="#333" stroke-width="0.8"/>
<polygon points="50.801,600.000 101.601,600.000 101.601,549.199 50.801,549.199" fill="#f4b183" stroke="#333" stroke-width="0.8"/>
<polygon points="549.199,549.199 600.000,549.199 600.000,498.399 549.199,498.399" fill="#f4b183" stroke="#333" stroke-width="0.8"/>
<polygon points="498.399,549.199 549.199,549.199 549.199,498.399 498.399,498.399" fill="#f4b183" stroke="#333" stroke-width="0.8"/>
<polygon points="447.598,549.199 498.399,549.199 498.399,498.399 447.598,498.399" fill="#f4b183" stroke="#333" stroke-width="0.8"/>
<polygon points="396.798,549.199 447.598,549.199 447.598,498.399 396.798,498.399" fill="#f4b183" stroke="#333" stroke-width="0.8"/>
<polygon points="345.997,549.199 396.798,549.199 396.798,498.399 345.997,498.399" fill="#f4b183" stroke="#333" stroke-width="0.8"/>
<polygon points="295.196,549.199 345.997,549.199 345.997,498.399 295.196,498.399" fill="#f4b183" stroke="#333" stroke-width="0.8"/>
<polygon points="252.210,519.587 297.776,497.127 275.316,451.561 229.750,474.021" fill="#f4b183" stroke="#333" stroke-width="0.8"/>
<polygon points="209.845,548.933 255.387,526.424 232.877,480.882 187.336,503.392" fill="#f4b183" stroke="#333" stroke-width="0.8"/>
<polygon points="161.630,566.374 206.380,542.330 182.336,497.580 137.586,521.624" fill="#f4b183" stroke="#333" stroke-width="0.8"/>
<polygon points="549.199,498.399 600.000,498.399 600.000,447.598 549.199,447.598" fill="#f4b183" stroke="#333" stroke-width="0.8"/>
<polygon points="498.381,498.399 549.182,498.399 549.182,447.598 498.381,447.598" fill="#f4b183" stroke="#333" stroke-width="0.8"/>
<polygon points="447.570,498.399 498.371,498.399 498.371,447.598 447.570,447.598" fill="#f4b183" stroke="#333" stroke-width="0.8"/>
<polygon points="396.760,498.399 447.561,498.399 447.561,447.598 396.760,447.598" fill="#f4b183" stroke="#333" stroke-width="0.8"/>
<polygon points="345.710,498.399 396.511,498.399 396.511,447.598 345.710,447.598" fill="#f4b183" stroke="#333" stroke-width="0.8"/>
<polygon points="298.116,497.350 343.682,474.890 321.221,429.324 275.656,451.785" fill="#f4b183" stroke="#333" stroke-width="0.8"/>
<polygon points="209.248,484.126 254.814,461.667 232.354,416.101 186.788,438.560" fill="#f4b183" stroke="#333" stroke-width="0.8"/>
<polygon points="163.807,506.843 209.246,484.126 186.530,438.688 141.091,461.404" fill="#f4b183" stroke="#333" stroke-width="0.8"/>
<polygon points="549.196,447.598 599.996,447.598 599.996,396.798 549.196,396.798" fill="#f4b183" stroke="#333" stroke-width="0.8"/>
<polygon points="498.381,447.598 549.182,447.598 549.182,396.798 498.381,396.798" fill="#f4b183" stroke="#333" stroke-width="0.8"/>
<polygon points="447.570,447.598 498.371,447.598 498.371,396.798 447.570,396.798" fill="#f4b183" stroke="#333" stroke-width="0.8"/>
<polygon points="396.760,447.598 447.561,447.598 447.561,396.798 396.760,396.798" fill="#f4b183" stroke="#333" stroke-width="0.8"/>
<polygon points="345.956,447.598 396.756,447.598 396.756,396.798 345.956,396.798" fill="#f4b183" stroke="#333" stroke-width="0.8"/>
<polygon points="300.387,439.212 345.954,416.754 323.496,371.187 277.929,393.645" fill="#f4b183" stroke="#333" stroke-width="0.8"/>
<polygon points="254.816,461.666 300.382,439.206 277.923,393.640 232.356,416.100" fill="#f4b183" stroke="#333" stroke-width="0.8"/>
<polygon points="549.199,396.798 600.000,396.798 600.000,345.997 549.199,345.997" fill="#f4b183" stroke="#333" stroke-width="0.8"/>
<polygon points="498.399,396.798 549.199,396.798 549.199,345.997 498.399,345.997" fill="#f4b183" stroke="#333" stroke-width="0.8"/>
<polygon points="447.598,396.646 498.399,396.646 498.399,345.846 447.598,345.846" fill="#f4b183" stroke="#333" stroke-width="0.8"/>
<polygon points="396.798,396.798 447.598,396.798 447.598,345.997 396.798,345.997" fill="#f4b183" stroke="#333" stroke-width="0.8"/>
<polygon points="345.997,396.798 396.798,396.798 396.798,345.997 345.997,345.997" fill="#f4b183" stroke="#333" stroke-width="0.8"/>
<polygon points="300.431,382.546 345.997,360.086 323.537,314.520 277.971,336.980" fill="#f4b183" stroke="#333" stroke-width="0.8"/>
<polygon points="549.199,345.997 600.000,345.997 600.000,295.196 549.199,295.196" fill="#f4b183" stroke="#333" stroke-width="0.8"/>
<polygon points="498.399,345.997 549.199,345.997 549.199,295.196 498.399,295.196" fill="#f4b183" stroke="#333" stroke-width="0.8"/>
<polygon points="447.598,345.764 498.399,345.764 498.399,294.963 447.598,294.963" fill="#f4b183" stroke="#333" stroke-width="0.8"/>
<polygon points="396.798,345.997 447.598,345.997 447.598,295.196 396.798,295.196" fill="#f4b183" stroke="#333" stroke-width="0.8"/>
<polygon points="345.997,345.997 396.798,345.997 396.798,295.196 345.997,295.196" fill="#f4b183" stroke="#333" stroke-width="0.8"/>
<polygon points="549.124,295.196 599.925,295.196 599.925,244.396 549.124,244.396" fill="#f4b183" stroke="#333" stroke-width="0.8"/>
<polygon points="498.155,294.860 548.955,294.892 548.987,244.092 498.187,244.060" fill="#f4b183" stroke="#333" stroke-width="0.8"/>
<polygon points="447.253,294.844 498.054,294.836 498.046,244.035 447.245,244.043" fill="#f4b183" stroke="#333" stroke-width="0.8"/>
<polygon points="396.320,295.196 447.121,295.196 447.121,244.396 396.320,244.396" fill="#9dc3e6" stroke="#333" stroke-width="0.8"/>
<polygon points="549.145,244.396 599.946,244.396 599.946,193.595 549.145,193.595" fill="#f4b183" stroke="#333" stroke-width="0.8"/>
<polygon points="498.204,243.895 549.005,243.898 549.008,193.098 498.207,193.095" fill="#f4b183" stroke="#333" stroke-width="0.8"/>
<polygon points="447.249,243.899 498.049,243.894 498.044,193.093 447.243,193.099" fill="#f4b183" stroke="#333" stroke-width="0.8"/>
<polygon points="549.199,193.595 600.000,193.595 600.000,142.794 549.199,142.794" fill="#f4b183" stroke="#333" stroke-width="0.8"/>
<polygon points="488.298,192.971 529.984,163.937 500.951,122.251 459.264,151.284" fill="#f4b183" stroke="#333" stroke-width="0.8"/>
<polygon points="549.074,50.898 599.875,50.899 599.876,0.099 549.075,0.098" fill="#f4b183" stroke="#333" stroke-width="0.8"/>
<polygon points="549.099,101.894 599.900,101.898 599.904,51.097 549.103,51.093" fill="#f4b183" stroke="#333" stroke-width="0.8"/>
<polygon points="498.022,50.801 548.823,50.801 548.823,0.000 498.022,0.000" fill="#f4b183" stroke="#333" stroke-width="0.8"/>
<polygon points="526.502,158.610 568.182,129.567 539.139,87.887 497.459,116.930" fill="#f4b183" stroke="#333" stroke-width="0.8"/>
<polygon points="0.000,600.000 50.801,600.000 50.801,549.199 0.000,549.199" fill="#f4b183" stroke="#333" stroke-width="0.8"/>
<polygon points="0.000,549.199 50.801,549.199 50.801,498.399 0.000,498.399" fill="#f4b183" stroke="#333" stroke-width="0.8"/>
<polygon points="73.517,496.681 118.956,473.965 96.239,428.526 50.801,451.243" fill="#f4b183" stroke="#333" stroke-width="0.8"/>
<polygon points="50.801,549.199 101.601,549.199 101.601,498.399 50.801,498.399" fill="#f4b183" stroke="#333" stroke-width="0.8"/>
<polygon points="118.358,472.769 163.797,450.053 141.080,404.614 95.641,427.331" fill="#f4b183" stroke="#333" stroke-width="0.8"/>
<polygon points="119.346,531.424 164.096,507.380 140.052,462.630 95.302,486.674" fill="#f4b183" stroke="#333" stroke-width="0.8"/>
<polygon points="118.166,415.748 163.732,393.288 141.273,347.722 95.707,370.181" fill="#f4b183" stroke="#333" stroke-width="0.8"/>
<polygon points="163.732,449.924 209.299,427.465 186.839,381.899 141.273,404.358" fill="#f4b183" stroke="#333" stroke-width="0.8"/>
<polygon points="163.732,393.288 209.299,370.828 186.839,325.262 141.273,347.722" fill="#f4b183" stroke="#333" stroke-width="0.8"/>
<polygon points="209.299,427.465 254.865,405.005 232.405,359.439 186.839,381.899" fill="#f4b183" stroke="#333" stroke-width="0.8"/>
<polygon points="209.299,370.828 254.865,348.369 232.405,302.803 186.839,325.262" fill="#f4b183" stroke="#333" stroke-width="0.8"/>
<polygon points="254.865,405.005 300.431,382.546 277.971,336.980 232.405,359.439" fill="#f4b183" stroke="#333" stroke-width="0.8"/>
<polygon points="254.056,292.131 299.623,269.671 277.163,224.105 231.597,246.565" fill="#f4b183" stroke="#333" stroke-width="0.8"/>
<polygon points="254.865,348.369 300.431,325.909 277.971,280.343 232.405,302.803" fill="#f4b183" stroke="#333" stroke-width="0.8"/>
<polygon points="299.738,269.614 345.304,247.155 322.845,201.589 277.279,224.048" fill="#f4b183" stroke="#333" stroke-width="0.8"/>
<polygon points="300.431,325.909 345.997,303.450 323.537,257.884 277.971,280.343" fill="#f4b183" stroke="#333" stroke-width="0.8"/>
<polygon points="345.153,244.396 395.954,244.396 395.954,193.595 345.153,193.595" fill="#f4b183" stroke="#333" stroke-width="0.8"/>
<polygon points="345.380,295.196 396.181,295.196 396.181,244.396 345.380,244.396" fill="#f4b183" stroke="#333" stroke-width="0.8"/>
<polygon points="353.042,193.595 395.695,166.002 368.103,123.349 325.449,150.941" fill="#f4b183" stroke="#333" stroke-width="0.8"/>
<polygon points="396.286,244.396 447.087,244.396 447.087,193.595 396.286,193.595" fill="#f4b183" stroke="#333" stroke-width="0.8"/>
<polygon points="388.074,152.010 429.754,122.967 400.711,81.287 359.031,110.330" fill="#f4b183" stroke="#333" stroke-width="0.8"/>
<polygon points="417.253,193.595 458.933,164.552 429.890,122.872 388.210,151.915" fill="#f4b183" stroke="#333" stroke-width="0.8"/>
<polygon points="490.867,121.523 532.547,92.480 503.504,50.801 461.824,79.844" fill="#f4b183" stroke="#333" stroke-width="0.8"/>
<polygon points="452.731,155.652 494.411,126.609 465.368,84.929 423.688,113.972" fill="#f4b183" stroke="#333" stroke-width="0.8"/>
<text x="0" y="628" font-family="monospace" font-size="16">n = 127, s = 11.810878788</text>
</svg>
