<svg xmlns="http://www.w3.org/2000/svg" width="620" height="650" viewBox="-10 -10 620 650">
<rect x="0" y="0" width="600" height="600" fill="none" stroke="black" stroke-width="1.5"/>
<polygon points="0.000,33.620 33.620,33.620 33.620,0.000 0.000,0.000" fill="#9dc3e6" stroke="#333" stroke-width="0.8"/>
<polygon points="33.620,33.620 67.239,33.620 67.239,0.000 33.620,0.000" fill="#9dc3e6" stroke="#333" stroke-width="0.8"/>
<polygon points="67.239,33.620 100.859,33.620 100.859,0.000 67.239,0.000" fill="#9dc3e6" stroke="#333" stroke-width="0.8"/>
<polygon points="100.863,33.620 134.482,33.632 134.494,0.012 100.875,0.000" fill="#f4b183" stroke="#333" stroke-width="0.8"/>
<polygon points="134.494,33.632 168.114,33.632 168.114,0.012 134.494,0.012" fill="#f4b183" stroke="#333" stroke-width="0.8"/>
<polygon points="168.117,33.939 201.737,34.095 201.893,0.476 168.273,0.320" fill="#f4b183" stroke="#333" stroke-width="0.8"/>
<polygon points="201.742,33.843 235.361,33.995 235.513,0.376 201.894,0.224" fill="#f4b183" stroke="#333" stroke-width="0.8"/>
<polygon points="129.324,532.761 162.944,532.761 162.944,499.141 129.324,499.141" fill="#9dc3e6" stroke="#333" stroke-width="0.8"/>
<polygon points="269.003,33.666 302.623,33.797 302.754,0.178 269.135,0.046" fill="#f4b183" stroke="#333" stroke-width="0.8"/>
<polygon points="302.666,33.732 336.286,33.820 336.374,0.201 302.754,0.112" fill="#f4b183" stroke="#333" stroke-width="0.8"/>
<polygon points="336.286,33.620 369.906,33.708 369.994,0.088 336.374,0.000" fill="#f4b183" stroke="#333" stroke-width="0.8"/>
<polygon points="369.906,33.620 403.526,33.708 403.614,0.088 369.994,0.000" fill="#f4b183" stroke="#333" stroke-width="0.8"/>
<polygon points="403.578,33.879 437.197,33.920 437.238,0.300 403.619,0.259" fill="#f4b183" stroke="#333" stroke-width="0.8"/>
<polygon points="437.198,33.620 470.817,33.661 470.858,0.041 437.239,0.000" fill="#f4b183" stroke="#333" stroke-width="0.8"/>
<polygon points="470.817,33.620 504.437,33.661 504.478,0.041 470.858,0.000" fill="#f4b183" stroke="#333" stroke-width="0.8"/>
<polygon points="0.000,67.239 33.620,67.239 33.620,33.620 0.000,33.620" fill="#9dc3e6" stroke="#333" stroke-width="0.8"/>
<polygon points="33.620,67.239 67.239,67.239 67.239,33.620 33.620,33.620" fill="#9dc3e6" stroke="#333" stroke-width="0.8"/>
<polygon points="67.239,67.239 100.859,67.239 100.859,33.620 67.239,33.620" fill="#9dc3e6" stroke="#333" stroke-width="0.8"/>
<polygon points="100.862,67.252 134.481,67.252 134.481,33.632 100.862,33.632" fill="#f4b183" stroke="#333" stroke-width="0.8"/>
<polygon points="134.482,67.252 168.102,67.252 168.102,33.632 134.482,33.632" fill="#f4b183" stroke="#333" stroke-width="0.8"/>
<polygon points="168.101,67.584 201.721,67.715 201.852,34.096 168.233,33.964" fill="#f4b183" stroke="#333" stroke-width="0.8"/>
<polygon points="201.722,67.484 235.341,67.615 235.473,33.996 201.853,33.864" fill="#f4b183" stroke="#333" stroke-width="0.8"/>
<polygon points="235.343,67.239 268.962,67.371 269.094,33.751 235.474,33.620" fill="#f4b183" stroke="#333" stroke-width="0.8"/>
<polygon points="268.962,67.286 302.582,67.417 302.713,33.797 269.094,33.666" fill="#f4b183" stroke="#333" stroke-width="0.8"/>
<polygon points="302.582,67.352 336.202,67.483 336.333,33.864 302.714,33.732" fill="#f4b183" stroke="#333" stroke-width="0.8"/>
<polygon points="336.246,67.239 369.865,67.327 369.953,33.708 336.334,33.620" fill="#f4b183" stroke="#333" stroke-width="0.8"/>
<polygon points="369.866,67.239 403.485,67.327 403.573,33.708 369.954,33.620" fill="#f4b183" stroke="#333" stroke-width="0.8"/>
<polygon points="403.484,67.498 437.104,67.650 437.256,34.031 403.637,33.879" fill="#f4b183" stroke="#333" stroke-width="0.8"/>
<polygon points="437.156,67.239 470.776,67.340 470.877,33.721 437.257,33.620" fill="#f4b183" stroke="#333" stroke-width="0.8"/>
<polygon points="0.000,100.859 33.620,100.859 33.620,67.239 0.000,67.239" fill="#9dc3e6" stroke="#333" stroke-width="0.8"/>
<polygon points="33.620,100.859 67.239,100.859 67.239,67.239 33.620,67.239" fill="#9dc3e6" stroke="#333" stroke-width="0.8"/>
<polygon points="67.239,100.859 100.859,100.859 100.859,67.239 67.239,67.239" fill="#9dc3e6" stroke="#333" stroke-width="0.8"/>
<polygon points="100.862,100.871 134.481,100.871 134.481,67.252 100.862,67.252" fill="#f4b183" stroke="#333" stroke-width="0.8"/>
<polygon points="134.482,100.871 168.101,100.871 168.101,67.252 134.482,67.252" fill="#f4b183" stroke="#333" stroke-width="0.8"/>
<polygon points="168.104,101.204 201.723,101.356 201.875,67.736 168.256,67.584" fill="#f4b183" stroke="#333" stroke-width="0.8"/>
<polygon points="201.724,101.104 235.344,101.256 235.496,67.636 201.876,67.484" fill="#f4b183" stroke="#333" stroke-width="0.8"/>
<polygon points="235.366,100.859 268.985,100.991 269.117,67.371 235.497,67.240" fill="#f4b183" stroke="#333" stroke-width="0.8"/>
<polygon points="268.986,100.906 302.605,101.048 302.748,67.429 269.128,67.286" fill="#f4b183" stroke="#333" stroke-width="0.8"/>
<polygon points="302.693,101.049 336.313,101.106 336.371,67.487 302.751,67.429" fill="#f4b183" stroke="#333" stroke-width="0.8"/>
<polygon points="336.361,100.860 369.981,100.948 370.069,67.328 336.449,67.240" fill="#f4b183" stroke="#333" stroke-width="0.8"/>
<polygon points="369.981,100.861 403.600,101.120 403.859,67.501 370.240,67.242" fill="#f4b183" stroke="#333" stroke-width="0.8"/>
<polygon points="403.672,101.677 437.289,102.028 437.640,68.410 404.022,68.059" fill="#f4b183" stroke="#333" stroke-width="0.8"/>
<polygon points="0.000,134.479 33.620,134.479 33.620,100.859 0.000,100.859" fill="#9dc3e6" stroke="#333" stroke-width="0.8"/>
<polygon points="33.620,134.479 67.239,134.479 67.239,100.859 33.620,100.859" fill="#9dc3e6" stroke="#333" stroke-width="0.8"/>
<polygon points="67.239,134.479 100.859,134.479 100.859,100.859 67.239,100.859" fill="#9dc3e6" stroke="#333" stroke-width="0.8"/>
<polygon points="100.862,134.491 134.482,134.491 134.482,100.871 100.862,100.871" fill="#f4b183" stroke="#333" stroke-width="0.8"/>
<polygon points="134.482,134.491 168.102,134.491 168.102,100.871 134.482,100.871" fill="#9dc3e6" stroke="#333" stroke-width="0.8"/>
<polygon points="168.102,134.828 201.721,134.976 201.870,101.356 168.250,101.208" fill="#f4b183" stroke="#333" stroke-width="0.8"/>
<polygon points="201.723,134.728 235.342,134.876 235.490,101.257 201.871,101.108" fill="#f4b183" stroke="#333" stroke-width="0.8"/>
<polygon points="235.360,134.479 268.980,134.611 269.111,100.991 235.492,100.860" fill="#f4b183" stroke="#333" stroke-width="0.8"/>
<polygon points="268.980,134.537 302.600,134.668 302.731,101.049 269.112,100.918" fill="#f4b183" stroke="#333" stroke-width="0.8"/>
<polygon points="302.600,134.674 336.219,134.806 336.351,101.186 302.731,101.055" fill="#f4b183" stroke="#333" stroke-width="0.8"/>
<polygon points="336.262,134.479 369.881,134.569 369.971,100.949 336.351,100.860" fill="#f4b183" stroke="#333" stroke-width="0.8"/>
<polygon points="369.881,134.571 403.500,134.740 403.669,101.120 370.050,100.951" fill="#f4b183" stroke="#333" stroke-width="0.8"/>
<polygon points="0.000,168.099 33.620,168.099 33.620,134.479 0.000,134.479" fill="#9dc3e6" stroke="#333" stroke-width="0.8"/>
<polygon points="33.620,168.099 67.239,168.099 67.239,134.479 33.620,134.479" fill="#9dc3e6" stroke="#333" stroke-width="0.8"/>
<polygon points="67.239,168.099 100.859,168.099 100.859,134.479 67.239,134.479" fill="#9dc3e6" stroke="#333" stroke-width="0.8"/>
<polygon points="100.862,168.111 134.482,168.111 134.482,134.491 100.862,134.491" fill="#f4b183" stroke="#333" stroke-width="0.8"/>
<polygon points="134.482,168.111 168.102,168.111 168.102,134.491 134.482,134.491" fill="#f4b183" stroke="#333" stroke-width="0.8"/>
<polygon points="168.104,168.448 201.723,168.598 201.874,134.979 168.254,134.828" fill="#f4b183" stroke="#333" stroke-width="0.8"/>
<polygon points="201.724,168.348 235.344,168.498 235.494,134.879 201.875,134.728" fill="#f4b183" stroke="#333" stroke-width="0.8"/>
<polygon points="235.364,168.099 268.984,168.231 269.115,134.611 235.496,134.480" fill="#f4b183" stroke="#333" stroke-width="0.8"/>
<polygon points="268.984,168.157 302.603,168.309 302.756,134.690 269.136,134.538" fill="#f4b183" stroke="#333" stroke-width="0.8"/>
<polygon points="302.604,168.294 336.223,168.462 336.390,134.842 302.771,134.675" fill="#f4b183" stroke="#333" stroke-width="0.8"/>
<polygon points="336.301,168.099 369.921,168.191 370.012,134.571 336.393,134.480" fill="#f4b183" stroke="#333" stroke-width="0.8"/>
<polygon points="0.000,201.718 33.620,201.718 33.620,168.099 0.000,168.099" fill="#9dc3e6" stroke="#333" stroke-width="0.8"/>
<polygon points="33.620,201.718 67.239,201.718 67.239,168.099 33.620,168.099" fill="#9dc3e6" stroke="#333" stroke-width="0.8"/>
<polygon points="67.239,201.718 100.859,201.718 100.859,168.099 67.239,168.099" fill="#9dc3e6" stroke="#333" stroke-width="0.8"/>
<polygon points="100.862,201.731 134.482,201.731 134.482,168.111 100.862,168.111" fill="#f4b183" stroke="#333" stroke-width="0.8"/>
<polygon points="134.482,201.731 168.102,201.731 168.102,168.111 134.482,168.111" fill="#f4b183" stroke="#333" stroke-width="0.8"/>
<polygon points="168.102,202.068 201.721,202.218 201.872,168.599 168.253,168.448" fill="#f4b183" stroke="#333" stroke-width="0.8"/>
<polygon points="201.723,201.968 235.342,202.120 235.494,168.500 201.875,168.348" fill="#f4b183" stroke="#333" stroke-width="0.8"/>
<polygon points="235.364,201.719 268.983,201.851 269.115,168.232 235.496,168.100" fill="#f4b183" stroke="#333" stroke-width="0.8"/>
<polygon points="268.984,201.777 302.603,201.929 302.755,168.310 269.136,168.158" fill="#f4b183" stroke="#333" stroke-width="0.8"/>
<polygon points="302.603,201.914 336.220,202.309 336.616,168.692 302.999,168.296" fill="#f4b183" stroke="#333" stroke-width="0.8"/>
<polygon points="0.000,235.338 33.620,235.338 33.620,201.718 0.000,201.718" fill="#9dc3e6" stroke="#333" stroke-width="0.8"/>
<polygon points="33.620,235.338 67.239,235.338 67.239,201.718 33.620,201.718" fill="#9dc3e6" stroke="#333" stroke-width="0.8"/>
<polygon points="67.239,235.338 100.859,235.338 100.859,201.718 67.239,201.718" fill="#9dc3e6" stroke="#333" stroke-width="0.8"/>
<polygon points="100.862,235.350 134.482,235.350 134.482,201.731 100.862,201.731" fill="#f4b183" stroke="#333" stroke-width="0.8"/>
<polygon points="134.482,235.350 168.102,235.350 168.102,201.731 134.482,201.731" fill="#f4b183" stroke="#333" stroke-width="0.8"/>
<polygon points="168.104,235.719 201.723,235.838 201.842,202.219 168.223,202.100" fill="#f4b183" stroke="#333" stroke-width="0.8"/>
<polygon points="201.724,235.608 235.343,235.740 235.475,202.120 201.855,201.989" fill="#f4b183" stroke="#333" stroke-width="0.8"/>
<polygon points="235.345,235.340 268.965,235.471 269.096,201.852 235.476,201.720" fill="#f4b183" stroke="#333" stroke-width="0.8"/>
<polygon points="268.965,235.397 302.584,235.549 302.736,201.930 269.117,201.778" fill="#f4b183" stroke="#333" stroke-width="0.8"/>
<polygon points="0.000,268.958 33.620,268.958 33.620,235.338 0.000,235.338" fill="#9dc3e6" stroke="#333" stroke-width="0.8"/>
<polygon points="67.239,268.958 100.859,268.958 100.859,235.338 67.239,235.338" fill="#9dc3e6" stroke="#333" stroke-width="0.8"/>
<polygon points="100.862,268.970 134.482,268.970 134.482,235.350 100.862,235.350" fill="#f4b183" stroke="#333" stroke-width="0.8"/>
<polygon points="134.482,268.970 168.102,268.970 168.102,235.350 134.482,235.350" fill="#f4b183" stroke="#333" stroke-width="0.8"/>
<polygon points="33.620,268.958 67.239,268.958 67.239,235.338 33.620,235.338" fill="#9dc3e6" stroke="#333" stroke-width="0.8"/>
<polygon points="168.104,269.458 201.723,269.458 201.724,235.838 168.104,235.838" fill="#f4b183" stroke="#333" stroke-width="0.8"/>
<polygon points="201.723,269.265 235.343,269.360 235.438,235.740 201.818,235.645" fill="#f4b183" stroke="#333" stroke-width="0.8"/>
<polygon points="235.344,268.996 268.964,269.091 269.059,235.471 235.439,235.376" fill="#f4b183" stroke="#333" stroke-width="0.8"/>
<polygon points="0.000,302.578 33.620,302.578 33.620,268.958 0.000,268.958" fill="#9dc3e6" stroke="#333" stroke-width="0.8"/>
<polygon points="33.620,302.678 67.239,302.678 67.239,269.059 33.620,269.059" fill="#9dc3e6" stroke="#333" stroke-width="0.8"/>
<polygon points="67.239,302.578 100.859,302.578 100.859,268.958 67.239,268.958" fill="#9dc3e6" stroke="#333" stroke-width="0.8"/>
<polygon points="100.859,302.590 134.479,302.591 134.480,268.971 100.860,268.970" fill="#f4b183" stroke="#333" stroke-width="0.8"/>
<polygon points="134.482,302.590 168.102,302.590 168.102,268.970 134.482,268.970" fill="#f4b183" stroke="#333" stroke-width="0.8"/>
<polygon points="168.101,303.077 201.721,303.135 201.779,269.515 168.159,269.458" fill="#f4b183" stroke="#333" stroke-width="0.8"/>
<polygon points="201.721,302.885 235.341,302.980 235.436,269.361 201.817,269.265" fill="#f4b183" stroke="#333" stroke-width="0.8"/>
<polygon points="0.000,336.197 33.620,336.197 33.620,302.578 0.000,302.578" fill="#9dc3e6" stroke="#333" stroke-width="0.8"/>
<polygon points="33.620,336.298 67.239,336.298 67.239,302.678 33.620,302.678" fill="#9dc3e6" stroke="#333" stroke-width="0.8"/>
<polygon points="67.239,336.197 100.859,336.197 100.859,302.578 67.239,302.578" fill="#9dc3e6" stroke="#333" stroke-width="0.8"/>
<polygon points="100.860,336.212 134.480,336.211 134.479,302.591 100.859,302.592" fill="#f4b183" stroke="#333" stroke-width="0.8"/>
<polygon points="134.480,336.211 168.100,336.210 168.099,302.590 134.479,302.591" fill="#f4b183" stroke="#333" stroke-width="0.8"/>
<polygon points="168.100,336.757 201.720,336.756 201.718,303.136 168.099,303.137" fill="#f4b183" stroke="#333" stroke-width="0.8"/>
<polygon points="0.000,369.817 33.620,369.817 33.620,336.197 0.000,336.197" fill="#9dc3e6" stroke="#333" stroke-width="0.8"/>
<polygon points="33.620,370.021 67.239,370.021 67.239,336.401 33.620,336.401" fill="#9dc3e6" stroke="#333" stroke-width="0.8"/>
<polygon points="67.239,369.817 100.859,369.817 100.859,336.197 67.239,336.197" fill="#9dc3e6" stroke="#333" stroke-width="0.8"/>
<polygon points="100.862,369.832 134.481,369.831 134.480,336.211 100.860,336.212" fill="#f4b183" stroke="#333" stroke-width="0.8"/>
<polygon points="134.481,369.831 168.101,369.829 168.100,336.210 134.480,336.211" fill="#f4b183" stroke="#333" stroke-width="0.8"/>
<polygon points="0.000,403.437 33.620,403.437 33.620,369.817 0.000,369.817" fill="#9dc3e6" stroke="#333" stroke-width="0.8"/>
<polygon points="33.620,403.666 67.239,403.666 67.239,370.046 33.620,370.046" fill="#9dc3e6" stroke="#333" stroke-width="0.8"/>
<polygon points="67.239,403.437 100.859,403.437 100.859,369.817 67.239,369.817" fill="#9dc3e6" stroke="#333" stroke-width="0.8"/>
<polygon points="100.863,403.452 134.483,403.450 134.481,369.831 100.862,369.832" fill="#f4b183" stroke="#333" stroke-width="0.8"/>
<polygon points="0.000,437.056 33.620,437.056 33.620,403.437 0.000,403.437" fill="#9dc3e6" stroke="#333" stroke-width="0.8"/>
<polygon points="33.620,437.286 67.239,437.286 67.239,403.666 33.620,403.666" fill="#9dc3e6" stroke="#333" stroke-width="0.8"/>
<polygon points="67.239,437.056 100.859,437.056 100.859,403.437 67.239,403.437" fill="#9dc3e6" stroke="#333" stroke-width="0.8"/>
<polygon points="0.000,470.676 33.620,470.676 33.620,437.056 0.000,437.056" fill="#9dc3e6" stroke="#333" stroke-width="0.8"/>
<polygon points="33.625,470.935 67.243,471.192 67.501,437.573 33.882,437.316" fill="#f4b183" stroke="#333" stroke-width="0.8"/>
<polygon points="0.000,504.296 33.620,504.296 33.620,470.676 0.000,470.676" fill="#9dc3e6" stroke="#333" stroke-width="0.8"/>
<polygon points="566.380,600.000 600.000,600.000 600.000,566.380 566.380,566.380" fill="#9dc3e6" stroke="#333" stroke-width="0.8"/>
<polygon points="532.761,600.000 566.380,600.000 566.380,566.380 532.761,566.380" fill="#9dc3e6" stroke="#333" stroke-width="0.8"/>
<polygon points="499.141,600.000 532.761,600.000 532.761,566.380 499.141,566.380" fill="#9dc3e6" stroke="#333" stroke-width="0.8"/>
<polygon points="465.521,600.000 499.141,600.000 499.141,566.380 465.521,566.380" fill="#9dc3e6" stroke="#333" stroke-width="0.8"/>
<polygon points="431.901,600.000 465.521,600.000 465.521,566.380 431.901,566.380" fill="#9dc3e6" stroke="#333" stroke-width="0.8"/>
<polygon points="398.282,600.000 431.901,600.000 431.901,566.380 398.282,566.380" fill="#9dc3e6" stroke="#333" stroke-width="0.8"/>
<polygon points="364.662,600.000 398.282,600.000 398.282,566.380 364.662,566.380" fill="#9dc3e6" stroke="#333" stroke-width="0.8"/>
<polygon points="331.042,600.000 364.662,600.000 364.662,566.380 331.042,566.380" fill="#9dc3e6" stroke="#333" stroke-width="0.8"/>
<polygon points="297.422,600.000 331.042,600.000 331.042,566.380 297.422,566.380" fill="#9dc3e6" stroke="#333" stroke-width="0.8"/>
<polygon points="263.803,600.000 297.422,600.000 297.422,566.380 263.803,566.380" fill="#9dc3e6" stroke="#333" stroke-width="0.8"/>
<polygon points="230.183,600.000 263.803,600.000 263.803,566.380 230.183,566.380" fill="#9dc3e6" stroke="#333" stroke-width="0.8"/>
<polygon points="196.563,600.000 230.183,600.000 230.183,566.380 196.563,566.380" fill="#9dc3e6" stroke="#333" stroke-width="0.8"/>
<polygon points="162.944,600.000 196.563,600.000 196.563,566.380 162.944,566.380" fill="#9dc3e6" stroke="#333" stroke-width="0.8"/>
<polygon points="129.324,600.000 162.944,600.000 162.944,566.380 129.324,566.380" fill="#9dc3e6" stroke="#333" stroke-width="0.8"/>
<polygon points="95.704,600.000 129.324,600.000 129.324,566.380 95.704,566.380" fill="#9dc3e6" stroke="#333" stroke-width="0.8"/>
<polygon points="62.084,600.000 95.704,600.000 95.704,566.380 62.084,566.380" fill="#9dc3e6" stroke="#333" stroke-width="0.8"/>
<polygon points="566.380,566.380 600.000,566.380 600.000,532.761 566.380,532.761" fill="#9dc3e6" stroke="#333" stroke-width="0.8"/>
<polygon points="532.761,566.380 566.380,566.380 566.380,532.761 532.761,532.761" fill="#9dc3e6" stroke="#333" stroke-width="0.8"/>
<polygon points="499.141,566.380 532.761,566.380 532.761,532.761 499.141,532.761" fill="#9dc3e6" stroke="#333" stroke-width="0.8"/>
<polygon points="465.521,566.380 499.141,566.380 499.141,532.761 465.521,532.761" fill="#9dc3e6" stroke="#333" stroke-width="0.8"/>
<polygon points="431.901,566.380 465.521,566.380 465.521,532.761 431.901,532.761" fill="#9dc3e6" stroke="#333" stroke-width="0.8"/>
<polygon points="398.282,566.380 431.901,566.380 431.901,532.761 398.282,532.761" fill="#9dc3e6" stroke="#333" stroke-width="0.8"/>
<polygon points="364.662,566.312 398.282,566.312 398.282,532.693 364.662,532.693" fill="#9dc3e6" stroke="#333" stroke-width="0.8"/>
<polygon points="331.042,566.380 364.662,566.380 364.662,532.761 331.042,532.761" fill="#9dc3e6" stroke="#333" stroke-width="0.8"/>
<polygon points="297.422,566.380 331.042,566.380 331.042,532.761 297.422,532.761" fill="#9dc3e6" stroke="#333" stroke-width="0.8"/>
<polygon points="263.803,566.380 297.422,566.380 297.422,532.761 263.803,532.761" fill="#9dc3e6" stroke="#333" stroke-width="0.8"/>
<polygon points="230.183,566.380 263.803,566.380 263.803,532.761 230.183,532.761" fill="#9dc3e6" stroke="#333" stroke-width="0.8"/>
<polygon points="196.563,566.380 230.183,566.380 230.183,532.761 196.563,532.761" fill="#9dc3e6" stroke="#333" stroke-width="0.8"/>
<polygon points="162.944,566.380 196.563,566.380 196.563,532.761 162.944,532.761" fill="#9dc3e6" stroke="#333" stroke-width="0.8"/>
<polygon points="129.324,566.380 162.944,566.380 162.944,532.761 129.324,532.761" fill="#9dc3e6" stroke="#333" stroke-width="0.8"/>
<polygon points="95.704,566.380 129.324,566.380 129.324,532.761 95.704,532.761" fill="#9dc3e6" stroke="#333" stroke-width="0.8"/>
<polygon points="235.383,33.619 269.003,33.751 269.134,0.131 235.515,0.000" fill="#f4b183" stroke="#333" stroke-width="0.8"/>
<polygon points="566.380,532.761 600.000,532.761 600.000,499.141 566.380,499.141" fill="#9dc3e6" stroke="#333" stroke-width="0.8"/>
<polygon points="532.761,532.761 566.380,532.761 566.380,499.141 532.761,499.141" fill="#9dc3e6" stroke="#333" stroke-width="0.8"/>
<polygon points="499.141,532.761 532.761,532.761 532.761,499.141 499.141,499.141" fill="#9dc3e6" stroke="#333" stroke-width="0.8"/>
<polygon points="465.521,532.761 499.141,532.761 499.141,499.141 465.521,499.141" fill="#9dc3e6" stroke="#333" stroke-width="0.8"/>
<polygon points="431.901,532.761 465.521,532.761 465.521,499.141 431.901,499.141" fill="#9dc3e6" stroke="#333" stroke-width="0.8"/>
<polygon points="398.282,532.761 431.901,532.761 431.901,499.141 398.282,499.141" fill="#9dc3e6" stroke="#333" stroke-width="0.8"/>
<polygon points="364.662,532.592 398.282,532.592 398.282,498.972 364.662,498.972" fill="#9dc3e6" stroke="#333" stroke-width="0.8"/>
<polygon points="331.042,532.288 364.662,532.288 364.662,498.669 331.042,498.669" fill="#9dc3e6" stroke="#333" stroke-width="0.8"/>
<polygon points="297.422,532.761 331.042,532.761 331.042,499.141 297.422,499.141" fill="#9dc3e6" stroke="#333" stroke-width="0.8"/>
<polygon points="263.803,532.761 297.422,532.761 297.422,499.141 263.803,499.141" fill="#9dc3e6" stroke="#333" stroke-width="0.8"/>
<polygon points="230.183,532.761 263.803,532.761 263.803,499.141 230.183,499.141" fill="#9dc3e6" stroke="#333" stroke-width="0.8"/>
<polygon points="196.563,532.761 230.183,532.761 230.183,499.141 196.563,499.141" fill="#9dc3e6" stroke="#333" stroke-width="0.8"/>
<polygon points="162.944,532.761 196.563,532.761 196.563,499.141 162.944,499.141" fill="#9dc3e6" stroke="#333" stroke-width="0.8"/>
<polygon points="566.380,499.141 600.000,499.141 600.000,465.521 566.380,465.521" fill="#9dc3e6" stroke="#333" stroke-width="0.8"/>
<polygon points="532.761,499.141 566.380,499.141 566.380,465.521 532.761,465.521" fill="#9dc3e6" stroke="#333" stroke-width="0.8"/>
<polygon points="499.141,499.141 532.761,499.141 532.761,465.521 499.141,465.521" fill="#9dc3e6" stroke="#333" stroke-width="0.8"/>
<polygon points="465.521,499.141 499.141,499.141 499.141,465.521 465.521,465.521" fill="#9dc3e6" stroke="#333" stroke-width="0.8"/>
<polygon points="431.901,499.141 465.521,499.141 465.521,465.521 431.901,465.521" fill="#9dc3e6" stroke="#333" stroke-width="0.8"/>
<polygon points="398.282,499.141 431.901,499.141 431.901,465.521 398.282,465.521" fill="#9dc3e6" stroke="#333" stroke-width="0.8"/>
<polygon points="364.414,498.610 398.033,498.609 398.033,464.990 364.414,464.990" fill="#f4b183" stroke="#333" stroke-width="0.8"/>
<polygon points="330.794,498.610 364.414,498.609 364.414,464.990 330.794,464.990" fill="#f4b183" stroke="#333" stroke-width="0.8"/>
<polygon points="297.174,499.141 330.794,499.140 330.794,465.521 297.174,465.521" fill="#f4b183" stroke="#333" stroke-width="0.8"/>
<polygon points="263.554,499.141 297.174,499.141 297.174,465.521 263.554,465.521" fill="#f4b183" stroke="#333" stroke-width="0.8"/>
<polygon points="229.934,499.141 263.554,499.141 263.554,465.521 229.934,465.521" fill="#f4b183" stroke="#333" stroke-width="0.8"/>
<polygon points="196.315,499.141 229.934,499.141 229.934,465.521 196.315,465.521" fill="#f4b183" stroke="#333" stroke-width="0.8"/>
<polygon points="162.695,499.137 196.315,499.137 196.315,465.518 162.695,465.518" fill="#f4b183" stroke="#333" stroke-width="0.8"/>
<polygon points="566.135,465.270 599.754,465.516 600.000,431.897 566.381,431.651" fill="#f4b183" stroke="#333" stroke-width="0.8"/>
<polygon points="532.515,465.270 566.133,465.516 566.379,431.897 532.760,431.651" fill="#f4b183" stroke="#333" stroke-width="0.8"/>
<polygon points="498.894,465.273 532.513,465.519 532.759,431.900 499.140,431.655" fill="#f4b183" stroke="#333" stroke-width="0.8"/>
<polygon points="465.273,465.353 498.893,465.516 499.056,431.897 465.436,431.734" fill="#f4b183" stroke="#333" stroke-width="0.8"/>
<polygon points="431.653,465.518 465.273,465.518 465.273,431.898 431.653,431.898" fill="#f4b183" stroke="#333" stroke-width="0.8"/>
<polygon points="398.033,465.521 431.653,465.521 431.653,431.901 398.033,431.901" fill="#f4b183" stroke="#333" stroke-width="0.8"/>
<polygon points="364.414,464.983 398.033,464.983 398.033,431.363 364.413,431.363" fill="#f4b183" stroke="#333" stroke-width="0.8"/>
<polygon points="330.794,464.983 364.414,464.983 364.413,431.363 330.794,431.363" fill="#f4b183" stroke="#333" stroke-width="0.8"/>
<polygon points="297.174,465.521 330.794,465.521 330.794,431.901 297.174,431.901" fill="#f4b183" stroke="#333" stroke-width="0.8"/>
<polygon points="263.554,465.521 297.174,465.521 297.174,431.901 263.554,431.901" fill="#f4b183" stroke="#333" stroke-width="0.8"/>
<polygon points="229.934,465.521 263.554,465.521 263.554,431.901 229.934,431.901" fill="#f4b183" stroke="#333" stroke-width="0.8"/>
<polygon points="196.315,465.521 229.934,465.521 229.934,431.901 196.315,431.901" fill="#f4b183" stroke="#333" stroke-width="0.8"/>
<polygon points="566.135,431.650 599.754,431.895 600.000,398.277 566.381,398.031" fill="#f4b183" stroke="#333" stroke-width="0.8"/>
<polygon points="532.515,431.650 566.133,431.895 566.379,398.277 532.760,398.031" fill="#f4b183" stroke="#333" stroke-width="0.8"/>
<polygon points="498.894,431.653 532.513,431.899 532.759,398.280 499.140,398.034" fill="#f4b183" stroke="#333" stroke-width="0.8"/>
<polygon points="465.273,431.655 498.892,431.896 499.133,398.277 465.514,398.036" fill="#f4b183" stroke="#333" stroke-width="0.8"/>
<polygon points="431.653,431.708 465.272,431.871 465.435,398.252 431.816,398.089" fill="#f4b183" stroke="#333" stroke-width="0.8"/>
<polygon points="398.033,431.901 431.653,431.901 431.653,398.281 398.033,398.282" fill="#f4b183" stroke="#333" stroke-width="0.8"/>
<polygon points="364.199,431.353 397.818,431.349 397.815,397.730 364.195,397.733" fill="#f4b183" stroke="#333" stroke-width="0.8"/>
<polygon points="330.579,431.363 364.199,431.359 364.195,397.740 330.576,397.743" fill="#f4b183" stroke="#333" stroke-width="0.8"/>
<polygon points="296.953,431.901 330.573,431.901 330.572,398.281 296.953,398.281" fill="#f4b183" stroke="#333" stroke-width="0.8"/>
<polygon points="263.333,431.901 296.953,431.901 296.953,398.281 263.333,398.281" fill="#f4b183" stroke="#333" stroke-width="0.8"/>
<polygon points="229.713,431.901 263.333,431.901 263.333,398.281 229.713,398.281" fill="#f4b183" stroke="#333" stroke-width="0.8"/>
<polygon points="565.988,397.995 599.607,398.274 599.885,364.655 566.267,364.376" fill="#f4b183" stroke="#333" stroke-width="0.8"/>
<polygon points="532.301,397.928 565.919,398.273 566.264,364.655 532.646,364.310" fill="#f4b183" stroke="#333" stroke-width="0.8"/>
<polygon points="498.680,397.998 532.298,398.276 532.577,364.658 498.958,364.379" fill="#f4b183" stroke="#333" stroke-width="0.8"/>
<polygon points="465.059,397.995 498.677,398.274 498.956,364.655 465.337,364.377" fill="#f4b183" stroke="#333" stroke-width="0.8"/>
<polygon points="431.438,398.010 465.057,398.250 465.297,364.631 431.678,364.391" fill="#f4b183" stroke="#333" stroke-width="0.8"/>
<polygon points="397.818,398.282 431.438,398.278 431.435,364.658 397.815,364.662" fill="#f4b183" stroke="#333" stroke-width="0.8"/>
<polygon points="364.199,397.697 397.818,397.693 397.815,364.073 364.195,364.077" fill="#f4b183" stroke="#333" stroke-width="0.8"/>
<polygon points="330.579,397.732 364.198,397.729 364.195,364.109 330.575,364.113" fill="#f4b183" stroke="#333" stroke-width="0.8"/>
<polygon points="296.953,398.281 330.572,398.281 330.572,364.661 296.953,364.662" fill="#f4b183" stroke="#333" stroke-width="0.8"/>
<polygon points="263.333,398.281 296.953,398.281 296.953,364.662 263.333,364.662" fill="#f4b183" stroke="#333" stroke-width="0.8"/>
<polygon points="565.988,364.374 599.607,364.653 599.885,331.034 566.267,330.756" fill="#f4b183" stroke="#333" stroke-width="0.8"/>
<polygon points="532.301,364.306 565.919,364.652 566.264,331.034 532.646,330.689" fill="#f4b183" stroke="#333" stroke-width="0.8"/>
<polygon points="498.680,364.377 532.298,364.655 532.577,331.037 498.958,330.758" fill="#f4b183" stroke="#333" stroke-width="0.8"/>
<polygon points="465.059,364.374 498.677,364.653 498.956,331.034 465.337,330.756" fill="#f4b183" stroke="#333" stroke-width="0.8"/>
<polygon points="431.438,364.389 465.057,364.629 465.297,331.010 431.678,330.770" fill="#f4b183" stroke="#333" stroke-width="0.8"/>
<polygon points="397.818,364.662 431.438,364.658 431.435,331.039 397.815,331.042" fill="#f4b183" stroke="#333" stroke-width="0.8"/>
<polygon points="364.107,364.077 397.727,364.073 397.724,330.454 364.104,330.457" fill="#f4b183" stroke="#333" stroke-width="0.8"/>
<polygon points="330.488,364.096 364.107,364.092 364.104,330.473 330.484,330.476" fill="#f4b183" stroke="#333" stroke-width="0.8"/>
<polygon points="296.865,364.662 330.484,364.661 330.484,331.042 296.865,331.042" fill="#f4b183" stroke="#333" stroke-width="0.8"/>
<polygon points="565.897,330.752 599.515,331.031 599.794,297.413 566.175,297.134" fill="#f4b183" stroke="#333" stroke-width="0.8"/>
<polygon points="532.210,330.684 565.828,331.029 566.173,297.411 532.555,297.066" fill="#f4b183" stroke="#333" stroke-width="0.8"/>
<polygon points="498.639,297.135 532.257,297.413 532.536,263.795 498.918,263.516" fill="#f4b183" stroke="#333" stroke-width="0.8"/>
<polygon points="464.968,330.753 498.586,331.031 498.865,297.413 465.246,297.134" fill="#f4b183" stroke="#333" stroke-width="0.8"/>
<polygon points="431.347,330.768 464.966,331.008 465.206,297.389 431.587,297.149" fill="#f4b183" stroke="#333" stroke-width="0.8"/>
<polygon points="397.727,331.042 431.347,331.039 431.343,297.419 397.724,297.422" fill="#f4b183" stroke="#333" stroke-width="0.8"/>
<polygon points="364.105,330.457 397.725,330.454 397.722,296.834 364.102,296.837" fill="#f4b183" stroke="#333" stroke-width="0.8"/>
<polygon points="330.484,330.473 364.104,330.470 364.101,296.850 330.481,296.853" fill="#f4b183" stroke="#333" stroke-width="0.8"/>
<polygon points="565.881,297.131 599.499,297.410 599.778,263.792 566.159,263.513" fill="#f4b183" stroke="#333" stroke-width="0.8"/>
<polygon points="532.260,297.064 565.879,297.342 566.158,263.724 532.539,263.445" fill="#f4b183" stroke="#333" stroke-width="0.8"/>
<polygon points="498.638,263.514 532.257,263.792 532.535,230.174 498.917,229.895" fill="#f4b183" stroke="#333" stroke-width="0.8"/>
<polygon points="465.018,297.132 498.637,297.372 498.877,263.753 465.258,263.513" fill="#f4b183" stroke="#333" stroke-width="0.8"/>
<polygon points="431.398,297.148 465.016,297.388 465.256,263.769 431.637,263.529" fill="#f4b183" stroke="#333" stroke-width="0.8"/>
<polygon points="397.778,297.422 431.398,297.419 431.394,263.799 397.774,263.803" fill="#f4b183" stroke="#333" stroke-width="0.8"/>
<polygon points="364.158,296.837 397.778,296.834 397.774,263.214 364.155,263.217" fill="#f4b183" stroke="#333" stroke-width="0.8"/>
<polygon points="565.880,263.510 599.498,263.789 599.777,230.171 566.159,229.892" fill="#f4b183" stroke="#333" stroke-width="0.8"/>
<polygon points="532.260,263.443 565.878,263.721 566.157,230.103 532.538,229.824" fill="#f4b183" stroke="#333" stroke-width="0.8"/>
<polygon points="498.655,229.893 532.274,230.172 532.553,196.553 498.934,196.274" fill="#f4b183" stroke="#333" stroke-width="0.8"/>
<polygon points="465.018,263.512 498.637,263.686 498.811,230.066 465.191,229.893" fill="#f4b183" stroke="#333" stroke-width="0.8"/>
<polygon points="431.398,263.528 465.017,263.701 465.190,230.082 431.571,229.908" fill="#f4b183" stroke="#333" stroke-width="0.8"/>
<polygon points="397.778,263.803 431.398,263.799 431.394,230.179 397.774,230.183" fill="#f4b183" stroke="#333" stroke-width="0.8"/>
<polygon points="565.898,229.860 599.516,230.168 599.825,196.550 566.207,196.241" fill="#f4b183" stroke="#333" stroke-width="0.8"/>
<polygon points="532.277,229.792 565.895,230.101 566.204,196.482 532.586,196.173" fill="#f4b183" stroke="#333" stroke-width="0.8"/>
<polygon points="498.588,330.755 532.207,331.034 532.486,297.415 498.867,297.137" fill="#f4b183" stroke="#333" stroke-width="0.8"/>
<polygon points="464.961,229.825 498.580,230.065 498.820,196.446 465.201,196.206" fill="#f4b183" stroke="#333" stroke-width="0.8"/>
<polygon points="431.340,229.841 464.959,230.081 465.199,196.462 431.580,196.222" fill="#f4b183" stroke="#333" stroke-width="0.8"/>
<polygon points="565.841,196.238 599.459,196.547 599.768,162.928 566.150,162.620" fill="#f4b183" stroke="#333" stroke-width="0.8"/>
<polygon points="532.220,196.170 565.839,196.479 566.148,162.861 532.529,162.552" fill="#f4b183" stroke="#333" stroke-width="0.8"/>
<polygon points="498.599,196.272 532.217,196.550 532.496,162.932 498.877,162.653" fill="#f4b183" stroke="#333" stroke-width="0.8"/>
<polygon points="464.978,196.205 498.597,196.445 498.837,162.826 465.218,162.586" fill="#f4b183" stroke="#333" stroke-width="0.8"/>
<polygon points="566.057,162.616 599.675,162.862 599.922,129.243 566.303,128.997" fill="#f4b183" stroke="#333" stroke-width="0.8"/>
<polygon points="532.371,162.550 565.989,162.859 566.298,129.241 532.680,128.932" fill="#f4b183" stroke="#333" stroke-width="0.8"/>
<polygon points="498.749,162.652 532.368,162.931 532.646,129.312 499.028,129.033" fill="#f4b183" stroke="#333" stroke-width="0.8"/>
<polygon points="565.861,128.977 599.480,129.237 599.739,95.618 566.120,95.359" fill="#f4b183" stroke="#333" stroke-width="0.8"/>
<polygon points="532.093,128.879 565.711,129.235 566.068,95.618 532.450,95.261" fill="#f4b183" stroke="#333" stroke-width="0.8"/>
<polygon points="565.994,95.253 599.612,95.519 599.878,61.900 566.260,61.634" fill="#f4b183" stroke="#333" stroke-width="0.8"/>
<polygon points="0.003,599.982 33.623,600.000 33.641,566.380 0.021,566.362" fill="#f4b183" stroke="#333" stroke-width="0.8"/>
<polygon points="566.095,48.340 599.714,48.514 599.888,14.895 566.269,14.720" fill="#f4b183" stroke="#333" stroke-width="0.8"/>
<polygon points="532.366,33.737 565.984,34.125 566.371,0.507 532.754,0.120" fill="#f4b183" stroke="#333" stroke-width="0.8"/>
<polygon points="0.000,537.916 27.629,557.071 46.784,529.443 19.156,510.287" fill="#f4b183" stroke="#333" stroke-width="0.8"/>
<polygon points="25.222,560.543 52.850,579.699 72.006,552.070 44.378,532.914" fill="#f4b183" stroke="#333" stroke-width="0.8"/>
<polygon points="26.119,515.115 53.747,534.270 72.903,506.642 45.275,487.486" fill="#f4b183" stroke="#333" stroke-width="0.8"/>
<polygon points="51.729,537.182 79.357,556.338 98.513,528.709 70.885,509.553" fill="#f4b183" stroke="#333" stroke-width="0.8"/>
<polygon points="52.489,492.488 80.117,511.644 99.273,484.015 71.645,464.859" fill="#f4b183" stroke="#333" stroke-width="0.8"/>
<polygon points="79.158,513.527 106.751,532.734 125.958,505.140 98.364,485.934" fill="#f4b183" stroke="#333" stroke-width="0.8"/>
<polygon points="71.393,464.685 99.022,483.841 118.178,456.212 90.549,437.056" fill="#f4b183" stroke="#333" stroke-width="0.8"/>
<polygon points="99.022,483.841 126.650,502.997 145.806,475.368 118.178,456.212" fill="#f4b183" stroke="#333" stroke-width="0.8"/>
<polygon points="97.603,441.947 125.582,460.587 144.222,432.609 116.243,413.968" fill="#f4b183" stroke="#333" stroke-width="0.8"/>
<polygon points="125.238,461.104 153.217,479.744 171.857,451.766 143.878,433.125" fill="#f4b183" stroke="#333" stroke-width="0.8"/>
<polygon points="124.035,419.159 152.029,437.777 170.647,409.783 142.653,391.165" fill="#f4b183" stroke="#333" stroke-width="0.8"/>
<polygon points="151.689,438.288 179.683,456.906 198.301,428.912 170.307,410.294" fill="#f4b183" stroke="#333" stroke-width="0.8"/>
<polygon points="150.487,396.375 178.501,414.963 197.089,386.950 169.075,368.362" fill="#f4b183" stroke="#333" stroke-width="0.8"/>
<polygon points="180.626,414.787 209.564,431.901 226.678,402.963 197.740,385.849" fill="#f4b183" stroke="#333" stroke-width="0.8"/>
<polygon points="168.101,367.720 196.313,386.006 214.599,357.794 186.387,339.508" fill="#f4b183" stroke="#333" stroke-width="0.8"/>
<polygon points="197.938,385.966 226.875,403.080 243.989,374.142 215.052,357.028" fill="#f4b183" stroke="#333" stroke-width="0.8"/>
<polygon points="196.296,345.930 225.236,363.040 242.346,334.099 213.405,316.990" fill="#f4b183" stroke="#333" stroke-width="0.8"/>
<polygon points="225.231,363.048 254.172,380.158 271.281,351.217 242.341,334.108" fill="#f4b183" stroke="#333" stroke-width="0.8"/>
<polygon points="223.522,322.971 252.463,340.081 269.572,311.140 240.632,294.031" fill="#f4b183" stroke="#333" stroke-width="0.8"/>
<polygon points="252.459,340.089 281.399,357.199 298.509,328.258 269.568,311.149" fill="#f4b183" stroke="#333" stroke-width="0.8"/>
<polygon points="247.378,298.019 276.319,315.128 293.428,286.188 264.488,269.078" fill="#f4b183" stroke="#333" stroke-width="0.8"/>
<polygon points="277.512,314.617 306.847,331.042 323.272,301.707 293.937,285.283" fill="#f4b183" stroke="#333" stroke-width="0.8"/>
<polygon points="268.022,270.773 297.357,287.197 313.781,257.863 284.447,241.438" fill="#f4b183" stroke="#333" stroke-width="0.8"/>
<polygon points="297.357,287.197 326.691,303.622 343.116,274.287 313.781,257.863" fill="#f4b183" stroke="#333" stroke-width="0.8"/>
<polygon points="295.745,247.764 325.080,264.189 341.504,234.854 312.170,218.429" fill="#f4b183" stroke="#333" stroke-width="0.8"/>
<polygon points="325.080,264.189 354.415,280.613 370.839,251.279 341.505,234.854" fill="#f4b183" stroke="#333" stroke-width="0.8"/>
<polygon points="323.609,224.834 352.943,241.259 369.368,211.924 340.033,195.500" fill="#f4b183" stroke="#333" stroke-width="0.8"/>
<polygon points="352.943,241.259 382.278,257.683 398.703,228.349 369.368,211.924" fill="#f4b183" stroke="#333" stroke-width="0.8"/>
<polygon points="343.604,197.499 372.938,213.923 389.363,184.589 360.028,168.164" fill="#f4b183" stroke="#333" stroke-width="0.8"/>
<polygon points="373.256,213.356 402.362,230.182 419.188,201.076 390.082,184.250" fill="#f4b183" stroke="#333" stroke-width="0.8"/>
<polygon points="368.053,171.399 397.109,188.312 414.022,159.257 384.967,142.343" fill="#f4b183" stroke="#333" stroke-width="0.8"/>
<polygon points="397.334,187.926 426.140,205.260 443.474,176.453 414.667,159.119" fill="#f4b183" stroke="#333" stroke-width="0.8"/>
<polygon points="395.699,147.706 424.506,165.039 441.839,136.232 413.032,118.899" fill="#f4b183" stroke="#333" stroke-width="0.8"/>
<polygon points="424.506,165.039 453.312,182.373 470.646,153.566 441.839,136.232" fill="#f4b183" stroke="#333" stroke-width="0.8"/>
<polygon points="423.427,125.154 452.235,142.486 469.567,113.678 440.759,96.346" fill="#f4b183" stroke="#333" stroke-width="0.8"/>
<polygon points="452.324,142.539 481.130,159.875 498.465,131.070 469.660,113.734" fill="#f4b183" stroke="#333" stroke-width="0.8"/>
<polygon points="440.365,96.109 469.173,113.441 486.505,84.633 457.697,67.301" fill="#f4b183" stroke="#333" stroke-width="0.8"/>
<polygon points="469.173,113.441 497.979,130.777 515.315,101.971 486.509,84.635" fill="#f4b183" stroke="#333" stroke-width="0.8"/>
<polygon points="467.318,73.086 496.124,90.422 513.460,61.616 484.654,44.280" fill="#f4b183" stroke="#333" stroke-width="0.8"/>
<polygon points="496.124,90.422 524.929,107.758 542.265,78.952 513.460,61.616" fill="#f4b183" stroke="#333" stroke-width="0.8"/>
<polygon points="494.485,50.197 523.291,67.533 540.627,38.727 511.821,21.391" fill="#f4b183" stroke="#333" stroke-width="0.8"/>
<polygon points="525.686,63.678 554.462,81.062 571.846,52.286 543.069,34.902" fill="#f4b183" stroke="#333" stroke-width="0.8"/>
<text x="0" y="628" font-family="monospace" font-size="16">n = 301, s = 17.846667193</text>
</svg>
